# xmcd
# Track frame offsets:
# 150
# 12809
# 25422
# 39162
# 54188
# 66008
# 77973
# 91654
# 105218
# 116041
# 125909
# 137173
# 150093
# 162828
#
# Disc length: 2336 seconds
# Revision: 0
# Processed by: cddbd v1.4PL0 Copyright (c) Steve Scherf et al.
# Submitted via: VisiTrax 2.9.5.180 - For more info visit www.synapsa.com
#
DISCID=9f091e0e
DTITLE=Dugg Collins - Sounds like Texas
DYEAR=2001
DGENRE=
TTITLE0=Hang your head in shame
TTITLE1=Another bridge to burn
TTITLE2=Bubbles in my beer
TTITLE3=Careless hands
TTITLE4=If she could see me now
TTITLE5=Each time I hear that song
TTITLE6=Sad songs and waltzes
TTITLE7=Walk me to the door
TTITLE8=Think of me (when a fool is talked about)
TTITLE9=Roly poly
TTITLE10=When your house is not a home
TTITLE11=It makes no difference now
TTITLE12=Dreams of a dreamer
TTITLE13=You lied to me
EXTD=
EXTT0=
EXTT1=
EXTT2=
EXTT3=
EXTT4=
EXTT5=
EXTT6=
EXTT7=
EXTT8=
EXTT9=
EXTT10=
EXTT11=
EXTT12=
EXTT13=
PLAYORDER=
